<svg width="253" height="207" viewBox="0 0 253 207" fill="none" xmlns="http://www.w3.org/2000/svg">
<path d="M68.5733 73.7652H70.1714L82.9849 197.217H81.3867L68.5733 73.7652Z" fill="#724E4E"/>
<path d="M191.562 180.653L190.543 185.89C196.902 190.453 214.822 197.217 214.822 197.217H230.615C230.615 197.217 199.163 185.232 191.562 180.653Z" fill="#FF7B31"/>
<path d="M201.502 39.8395H203.067L190.209 197.217H188.644L201.502 39.8395Z" fill="#724E4E"/>
<path d="M178.659 0.0015149H230.592C231.005 -0.0117371 231.416 0.0620788 231.798 0.2181C232.18 0.374122 232.525 0.608804 232.809 0.906678C233.093 1.20455 233.31 1.55885 233.447 1.94623C233.583 2.3336 233.635 2.74526 233.599 3.15406L228.938 60.2149C228.844 61.078 228.433 61.8764 227.784 62.4578C227.135 63.0392 226.293 63.363 225.419 63.3675H173.48C173.068 63.3798 172.657 63.3054 172.275 63.1491C171.894 62.9928 171.55 62.7581 171.266 62.4604C170.982 62.1627 170.764 61.8088 170.628 61.4218C170.491 61.0348 170.439 60.6235 170.473 60.2149L175.14 3.15406C175.232 2.29005 175.642 1.49027 176.292 0.908383C176.941 0.326491 177.784 0.00351557 178.659 0.0015149Z" fill="#EF5252"/>
<path d="M200.043 35.4924C210.914 33.3155 221.537 30.0562 231.751 25.7638L229.156 57.527C228.894 60.7514 226.277 63.3674 223.314 63.3674H175.585C172.623 63.3674 170.434 60.7514 170.696 57.527L172.227 38.7224C181.577 38.4579 190.884 37.377 200.043 35.4924Z" fill="#E83838"/>
<path d="M231.662 193.18C228.254 192.931 217.317 197.218 217.317 197.218H243.177L231.662 193.18Z" fill="#FFC85A"/>
<path d="M90.4413 81.7407C90.706 82.1834 90.8684 82.6791 90.9165 83.1918C90.9647 83.7045 90.8974 84.2214 90.7197 84.7052C90.5603 85.1668 90.2848 85.5803 89.9193 85.9064C89.5539 86.2326 89.1106 86.4607 88.6315 86.569L52.4855 94.0909C51.9918 94.1852 51.4816 94.1451 51.009 93.9747C50.5364 93.8043 50.1191 93.51 49.8014 93.123C49.458 92.7128 49.2154 92.229 49.0927 91.7097C48.9699 91.1904 48.9705 90.6499 49.0942 90.1308L60.5043 41.7809C60.6221 41.2218 60.9021 40.7091 61.3098 40.3061C61.7175 39.9031 62.235 39.6275 62.7986 39.5133C63.3679 39.4323 63.9486 39.5241 64.4644 39.7768C64.9802 40.0295 65.407 40.4312 65.6887 40.9292L90.4413 81.7407Z" fill="#EF5252"/>
<path d="M53.7884 70.2477C58.2727 74.9213 63.6338 78.679 69.5699 81.3092C76.7535 84.5115 83.9871 85.7892 90.3966 85.3578C90.1998 85.6697 89.9423 85.9394 89.6392 86.1512C89.3361 86.363 88.9934 86.5126 88.6314 86.5911L52.4854 94.1129C51.9917 94.2073 51.4815 94.1672 51.0089 93.9968C50.5363 93.8264 50.119 93.532 49.8013 93.145C49.4579 92.7349 49.2153 92.2511 49.0926 91.7318C48.9698 91.2125 48.9703 90.672 49.0941 90.1529L53.7884 70.2477Z" fill="#E83838"/>
<path d="M191.128 185.951L52.3017 170.366L51.9564 161.765L191.562 180.653L191.128 185.951Z" fill="#FFC85A"/>
<path d="M191.389 182.76L191.133 185.94L52.3073 170.355L52.1736 167.125C103.037 175.277 136.483 178.407 191.389 182.76Z" fill="#FF983B"/>
<path d="M178.671 178.889L191.562 180.631L191.133 185.929L163.451 182.826C168.976 181.654 174.076 180.327 178.671 178.889Z" fill="#FF983B"/>
<path d="M75.3057 164.929C70.2939 167.108 66.446 169.398 64.0904 171.693L52.3072 170.366L51.9564 161.765L75.3057 164.929Z" fill="#FF983B"/>
<path d="M53.7385 138.658L54.0448 197.217H52.4466L52.1403 138.658H53.7385Z" fill="#724E4E"/>
<path d="M196.34 112.569L196.368 119.687L51.9563 161.765L52.1957 149.852L196.34 112.569Z" fill="#FFC85A"/>
<path d="M82.9404 141.899L79.1983 153.829L65.7222 157.755L69.6091 145.35L82.9404 141.899Z" fill="#593737"/>
<path d="M108.211 135.361L104.753 146.384L91.2766 150.311L94.8795 138.813L108.211 135.361Z" fill="#593737"/>
<path d="M133.481 128.83L130.313 138.934L116.831 142.861L120.15 132.275L133.481 128.83Z" fill="#593737"/>
<path d="M158.752 122.292L155.867 131.49L142.391 135.417L145.42 125.738L158.752 122.292Z" fill="#593737"/>
<path d="M184.022 115.755L181.422 124.045L167.946 127.972L170.691 119.2L184.022 115.755Z" fill="#593737"/>
<path d="M83.7589 80.004C83.9514 80.3566 84.069 80.7446 84.1045 81.1442C84.1399 81.5438 84.0924 81.9463 83.9649 82.3269C83.8618 82.6766 83.6699 82.9941 83.4076 83.2489C83.1452 83.5036 82.8213 83.687 82.4669 83.7815L56.545 89.6718C56.1845 89.7437 55.8106 89.7104 55.4687 89.576C55.1268 89.4415 54.8314 89.2116 54.6182 88.914C54.369 88.5833 54.1942 88.2033 54.1059 87.7996C54.0175 87.396 54.0175 86.9782 54.1059 86.5745L62.2417 48.7109C62.3133 48.2834 62.5098 47.8861 62.8068 47.5685C63.1038 47.2509 63.4882 47.027 63.9123 46.9245C64.331 46.8669 64.7574 46.943 65.1298 47.1418C65.5021 47.3407 65.8012 47.6519 65.9838 48.0306L83.7589 80.004Z" fill="#FFF4C5"/>
<path d="M182.841 4.72478H225.642C226.054 4.71232 226.465 4.78672 226.846 4.9431C227.228 5.09948 227.571 5.33428 227.855 5.63206C228.138 5.92985 228.355 6.28388 228.491 6.67086C228.627 7.05783 228.679 7.46898 228.643 7.8773L224.745 55.4916C224.651 56.3547 224.24 57.1531 223.591 57.7345C222.942 58.3159 222.1 58.6397 221.226 58.6442H178.425C178.012 58.6574 177.601 58.5836 177.219 58.4276C176.837 58.2716 176.493 58.0369 176.209 57.739C175.925 57.4411 175.707 57.0868 175.571 56.6995C175.435 56.3121 175.383 55.9004 175.418 55.4916L179.316 7.8773C179.411 7.01329 179.823 6.21416 180.473 5.63261C181.123 5.05105 181.966 4.72785 182.841 4.72478Z" fill="#FFF4C5"/>
<path d="M190.877 24.4253C191.055 24.381 192.436 25.4098 193.455 26.1951C194.343 25.8739 195.264 25.6494 196.2 25.5259C196.835 24.7461 197.52 23.9275 197.938 23.5016C193.745 16.3117 189.819 7.20804 190.515 4.98467C190.699 4.38182 198.094 12.3185 199.692 18.9111C200.388 21.765 201.062 25.5978 201.363 27.246C201.562 27.1715 201.773 27.134 201.986 27.1354C202.067 27.1391 202.146 27.1579 202.22 27.1907C208.017 20.8026 222.646 10.5984 223.381 11.1902C223.982 11.6769 224.305 15.3272 222.212 19.431C219.678 24.381 210.356 26.3002 203.646 28.2802C204.185 28.7704 204.621 29.3627 204.926 30.0224C205.004 30.4594 204.464 31.7259 203.958 32.467C205.311 32.5887 209.916 35.9182 210.768 42.3394C211.665 49.0814 208.19 55.5635 206.313 57.3555C206.313 57.3555 202.838 53.7549 202.376 51.5813C202.103 50.2871 202.281 43.8383 202.693 38.7887C201.208 43.323 198.763 47.4888 195.521 51.0061L195.426 50.3037C198.808 46.7065 201.325 42.3952 202.788 37.6936C202.892 36.1065 203.127 34.5305 203.49 32.9814C203.177 33.029 202.857 32.9767 202.577 32.8321C202.02 37.7268 199.04 44.2752 195.142 48.5339L195.064 47.8315C198.963 43.5949 201.892 37.4724 202.393 32.7602C201.979 32.5862 201.581 32.379 201.201 32.1407C200.558 37.1632 198.364 41.8643 194.92 45.5971L194.719 44.9942C198.116 41.5154 200.594 36.2058 201.001 32.0246C200.597 31.7472 200.223 31.4283 199.887 31.0733C196.356 33.9935 193.5 41.0286 193.171 47.5771L192.664 47.9863C192.999 41.3992 196.15 33.9603 199.759 30.935C199.394 30.5456 199.132 30.0725 198.996 29.5578C195.371 32.8431 192.364 39.5851 191.701 45.4864L191.194 45.7575C191.874 39.7013 195.148 32.7767 198.885 29.403C198.509 29.6493 198.087 29.8192 197.644 29.9027C197.202 29.9863 196.747 29.9818 196.306 29.8897C193.372 33.2081 191.1 38.2301 189.908 43.7166L189.351 44.0374C190.543 38.5453 193.099 33.2745 196.139 29.8178L196.084 29.7901C195.651 30.2071 195.197 30.6021 194.725 30.9737C194.725 30.9737 191.879 28.2471 192.586 26.8644C191.528 26.7316 190.443 26.5712 190.359 26.4274C190.108 26.1232 190.593 24.4972 190.877 24.4253ZM200.516 27.6055C200.021 26.881 199.519 26.1066 199.013 25.2936C198.756 25.4485 198.383 25.6476 197.966 25.8467C198.071 26.0249 198.128 26.2266 198.133 26.433C198.349 26.424 198.566 26.4587 198.768 26.5351C198.971 26.6115 199.156 26.7279 199.312 26.8773C199.468 27.0267 199.592 27.206 199.677 27.4043C199.761 27.6027 199.804 27.816 199.803 28.0313C200.033 27.873 200.273 27.7307 200.522 27.6055H200.516Z" fill="#4C3F42"/>
<path d="M55.6541 164.918C70.5947 169.824 117.928 174.193 120.835 174.027C123.742 173.861 50.6144 163.259 55.6541 164.918Z" fill="#FF983B"/>
<g style="mix-blend-mode:overlay" opacity="0.56">
<path d="M185.943 116.601C181.488 120.694 131.27 133.564 96.9287 142.385C77.1601 147.463 58.5497 152.258 58.4383 151.329C58.3437 150.516 68.2001 146.965 96.511 140.068C128.08 132.369 186.166 116.109 186.166 116.109C186.249 116.225 186.172 116.391 185.943 116.601Z" fill="white"/>
</g>
<path d="M173.803 41.8197L173.458 46.0562L229.49 31.0845L229.623 27.5337L173.803 41.8197Z" fill="#E83838"/>
<path d="M57.5196 85.2251C57.9316 83.8313 58.444 80.0427 59.541 77.4101C59.6468 77.1391 59.7581 76.857 59.8751 76.6302C59.8931 76.1374 59.9641 75.648 60.0867 75.1701C60.4041 73.6436 61.0389 71.8517 61.2004 71.7908C61.3619 71.73 62.5202 73.0131 62.225 74.617H62.342C63.1828 73.1625 65.4549 70.8617 65.7611 70.8893C65.8112 70.8893 65.8614 70.9723 65.9115 71.0995C66.2456 71.3926 66.7356 73.7653 64.8869 75.0595C65.0739 75.2069 65.2229 75.3965 65.3212 75.6126C65.5362 75.5431 65.7404 75.4444 65.9282 75.3194C66.0006 75.2254 66.1008 75.1314 66.1844 75.0374C66.2679 74.9434 66.1844 75.0097 66.1844 74.9987C66.1844 74.9876 66.2679 74.9268 66.3013 74.8881L66.5574 74.6502C66.6577 74.5617 66.7579 74.4788 66.8693 74.3958C66.9807 74.3129 67.0642 74.252 67.17 74.1856L67.5431 73.9644C67.6545 73.9036 67.7658 73.8427 67.8828 73.7874C67.9997 73.7321 68.1723 73.6658 68.3227 73.6104C68.473 73.5551 68.5622 73.5164 68.6902 73.4777C68.853 73.4251 69.0184 73.3808 69.1858 73.345C69.3139 73.345 69.442 73.2841 69.5756 73.262C69.7093 73.2399 69.9432 73.2122 70.1325 73.1956C70.3218 73.179 70.3831 73.168 70.5167 73.1625C70.7375 73.1515 70.9586 73.1515 71.1794 73.1625C71.2908 73.1625 71.4021 73.1625 71.5191 73.1625C71.8694 73.2008 72.2172 73.2599 72.5604 73.3394C72.8143 73.4073 73.062 73.4961 73.301 73.6049L73.4681 73.6823C73.7096 73.7947 73.9407 73.9279 74.1586 74.0806L74.2087 74.1193C74.4207 74.2731 74.6216 74.4412 74.8102 74.6226L74.9438 74.7553C75.1454 74.9608 75.3316 75.1808 75.5007 75.4135C75.768 75.7844 75.9974 76.1809 76.1856 76.5971C76.6011 77.4851 76.825 78.4497 76.8427 79.4288C77.9564 78.7098 78.892 77.3714 78.4242 75.2033C78.4242 75.0927 78.3574 74.9821 78.324 74.8715C78.2905 74.7608 78.2627 74.6668 78.2181 74.5673C78.1736 74.4677 78.1346 74.3958 78.0956 74.3073C78.0492 74.2068 77.9972 74.1089 77.9397 74.0142C77.8952 73.9312 77.8339 73.8538 77.7782 73.7708C77.7226 73.6879 77.6557 73.5773 77.5833 73.4888C77.5109 73.4003 77.4497 73.3339 77.3829 73.2565C77.316 73.1791 77.2325 73.0795 77.149 72.991C77.0655 72.9025 76.9986 72.8472 76.9206 72.7753C76.8427 72.7034 76.748 72.5983 76.6534 72.5154L76.4028 72.3107L76.1021 72.0729L75.8236 71.8793C75.7178 71.8019 75.612 71.7245 75.5007 71.6526L75.2167 71.47L74.8714 71.2599L74.5651 71.0884L74.2087 70.8893L73.8857 70.7289L73.5294 70.5464L73.1897 70.3915L72.8389 70.2312L72.4936 70.0818L72.1539 69.938L71.7864 69.7942L71.4745 69.6725L71.1014 69.5343L70.8119 69.4292L70.4666 69.3075L70.177 69.208L69.5868 69.0199C69.2781 68.9224 68.975 68.8079 68.6791 68.677C68.5788 68.6383 68.4953 68.5885 68.3951 68.5443C68.2948 68.5 68.0275 68.3673 67.8382 68.2733L67.5319 68.0852C67.3816 67.9912 67.2313 67.9027 67.092 67.8031C66.9528 67.7036 66.8971 67.6594 66.8025 67.5875C66.7078 67.5156 66.5463 67.3939 66.4294 67.2888C66.3124 67.1837 66.2512 67.1284 66.1676 67.0454C66.0841 66.9625 65.9504 66.8408 65.8502 66.7357C65.75 66.6306 65.6943 66.5587 65.6219 66.4702C65.5495 66.3817 65.4382 66.2601 65.3546 66.155L65.1597 65.8785C65.0873 65.7678 65.0094 65.6627 64.9481 65.5521C64.8868 65.4415 64.8367 65.3641 64.7866 65.2701C64.7365 65.176 64.6697 65.0544 64.6196 64.9493C64.5694 64.8442 64.5416 64.7557 64.5026 64.6617C64.4636 64.5677 64.4191 64.446 64.3857 64.3409C64.3522 64.2358 64.33 64.1528 64.3022 64.0588C64.2743 63.9648 64.252 63.8542 64.2353 63.7491C64.2186 63.644 64.2075 63.5666 64.1963 63.4781C64.1908 63.3786 64.1908 63.2789 64.1963 63.1794C64.1908 63.0929 64.1908 63.0061 64.1963 62.9195C64.1963 62.8255 64.1963 62.7314 64.1963 62.643C64.2058 62.5609 64.2207 62.4797 64.2409 62.3996C64.2599 62.3152 64.284 62.2321 64.3133 62.1507C64.3133 62.0733 64.369 62.0014 64.4024 61.9295C64.4377 61.8529 64.4786 61.7789 64.5249 61.7083C64.5637 61.6431 64.6065 61.5803 64.653 61.5202C64.7064 61.4522 64.7661 61.3893 64.8312 61.3322C64.8828 61.2764 64.9386 61.2246 64.9982 61.1773L65.0483 61.1275C65.0467 61.1385 65.0467 61.1497 65.0483 61.1607C65.1555 61.0781 65.2691 61.0041 65.388 60.9395C63.2163 62.4107 65.8614 67.0565 68.8795 67.8585C72.4769 68.8153 78.5467 69.5177 80.0168 75.2586C80.0168 75.3139 80.0168 75.3637 80.0502 75.419V75.3914C80.0502 75.4577 80.0502 75.513 80.0836 75.5739C80.117 75.7343 80.1505 75.8947 80.1727 76.0551C80.1727 76.1214 80.1727 76.1878 80.1727 76.2597C80.1727 76.4201 80.2062 76.5749 80.2117 76.7298C80.2117 76.7962 80.2117 76.857 80.2117 76.9178C80.2201 77.0708 80.2201 77.224 80.2117 77.3769C80.2117 77.4377 80.2117 77.4931 80.2117 77.5484C80.2017 77.6986 80.1831 77.8482 80.156 77.9964C80.156 78.0517 80.156 78.1014 80.117 78.1567C80.117 78.3005 80.0558 78.4443 80.0168 78.5771C79.9778 78.7098 79.9778 78.6821 79.9611 78.7375C79.9444 78.7928 79.872 79.0029 79.8163 79.1302L79.7439 79.2795C79.6827 79.4012 79.627 79.5284 79.5602 79.6445C79.4934 79.7607 79.4934 79.7385 79.4655 79.7883C79.4377 79.8381 79.3263 80.0151 79.2483 80.1201L79.1258 80.264C79.0479 80.3635 78.9699 80.4631 78.8864 80.5516L78.736 80.6954C78.6525 80.7783 78.569 80.8668 78.4743 80.9442C78.4174 80.9933 78.3579 81.0395 78.2961 81.0825C78.207 81.1544 78.1179 81.2263 78.0233 81.2927L77.8061 81.4199C77.7166 81.4822 77.6236 81.5395 77.5276 81.5913L77.2715 81.713L76.993 81.8402C76.8984 81.8845 76.7926 81.9121 76.6924 81.9508L76.542 82.0006C76.4888 82.2178 76.4238 82.432 76.3471 82.6422L75.9684 82.7362L73.0226 83.4386L72.566 83.5437L72.4212 83.5824L71.8978 83.7041L71.5024 83.7981L71.3298 83.8424L70.0712 84.141L65.9226 85.131C65.9226 85.131 65.9226 84.3954 66.9138 84.1355L66.8693 84.0857L66.6354 83.8368C66.4294 83.8866 66.2289 83.9198 66.034 83.953C65.9235 84.058 65.8229 84.1727 65.7333 84.2959C65.7333 84.5779 65.8001 85.0425 65.7723 85.0259C65.668 84.893 65.5801 84.7482 65.5105 84.5945L65.3657 84.8103C65.2989 84.8987 65.2599 84.4894 65.3657 84.2959V84.2406C65.3631 84.1982 65.3631 84.1557 65.3657 84.1134C65.3153 84.1274 65.2692 84.1541 65.2321 84.1908C65.1486 84.2904 65.1096 85.1255 65.0762 85.0923C64.916 84.7715 64.8394 84.4159 64.8534 84.058C64.7365 84.224 64.5249 84.8711 64.5026 84.8324C64.4571 84.575 64.4477 84.3125 64.4748 84.0525C64.2986 84.2364 64.1004 84.398 63.8845 84.5337C63.782 84.8425 63.7038 85.1587 63.6506 85.4795C63.6506 85.5845 63.4223 85.2472 63.4223 85.037C63.4223 84.9319 63.4223 84.849 63.4223 84.7715L63.1661 84.8766C63.1661 85.0038 63.2887 85.6233 63.2552 85.6067C63.0895 85.4205 62.961 85.2046 62.8766 84.9706L62.7374 85.0149C62.6928 85.1753 62.7374 85.7449 62.6872 85.7228C62.5347 85.4737 62.4485 85.1901 62.4366 84.8987C62.3531 85.0259 62.225 85.5901 62.2028 85.5624C62.12 85.2694 62.12 84.9595 62.2028 84.6665C62.3364 84.4452 62.6984 84.5724 63.0492 84.4895C63.5036 84.0926 63.8176 83.5613 63.9449 82.9738C64.0722 82.3863 64.0061 81.7737 63.7564 81.2263C63.5893 81.1046 63.4279 80.994 63.2719 80.8945C62.6844 81.1061 62.0693 81.2328 61.4454 81.2706C60.4547 82.7514 59.3127 84.1266 58.0374 85.3744C57.8927 85.9938 57.2411 86.4805 56.8569 85.5956C56.6731 85.131 57.1186 85.131 57.5196 85.2251ZM65.1987 82.8358C65.1465 83.1246 65.0428 83.4018 64.8924 83.6543C65.1096 83.6543 65.4047 83.7041 65.7054 83.6543C65.8973 83.5646 66.0833 83.463 66.2623 83.3501C65.9059 82.9906 65.5606 82.6698 65.221 82.3656C65.2297 82.5227 65.2222 82.6802 65.1987 82.8358Z" fill="#4C3F42"/>
<path d="M55.9157 65.6682L56.9069 63.7656L85.6021 82.3213L84.6108 84.2239L55.9157 65.6682Z" fill="#EF5252"/>
<path d="M105.387 19.879C105.493 19.0051 116.252 23.3413 120.478 32.0467C122.834 36.9248 128.508 49.4686 128.508 49.4686L127.829 49.8226C118.29 41.1227 104.914 23.8501 105.387 19.879Z" fill="#A8E2DB"/>
<path d="M108.289 26.328C106.618 23.6234 105.655 21.4664 105.788 20.3713C105.889 19.5251 116.257 23.6898 120.334 32.1187C121.976 35.5146 125.295 42.8152 127.016 46.565C122.049 39.6018 113.88 30.7858 108.289 26.328Z" fill="#8ECEC6"/>
<path d="M105.504 19.6357C106.952 19.3924 116.642 23.7728 120.606 32.0081C122.711 36.3552 127.523 47.002 128.458 49.0649C128.361 49.0793 128.264 49.0997 128.169 49.1258C127.183 46.9411 122.439 36.4437 120.373 32.1297C116.881 24.9397 108.846 20.7419 106.317 20.0284C106.074 19.9304 105.81 19.8942 105.549 19.9233C105.137 23.911 118.173 40.6803 127.573 49.4023C127.493 49.4545 127.417 49.5118 127.345 49.5738C117.878 40.7854 104.792 23.8668 105.271 19.8625C105.279 19.8043 105.306 19.7505 105.348 19.7095C105.391 19.6685 105.446 19.6425 105.504 19.6357Z" fill="#CEF2ED"/>
<path d="M109.107 24.2041C110.082 24.0548 116.976 27.2294 120.417 33.6451C122.4 37.3507 127.539 47.5052 128.642 49.6843C128.555 49.6786 128.467 49.6786 128.38 49.6843C127.222 47.3891 122.177 37.3895 120.217 33.7115C117.198 28.0591 111.363 24.9618 109.636 24.4585C109.475 24.3902 109.299 24.3636 109.124 24.3811C108.823 27.0967 118.886 40.7411 127.829 49.889C127.758 49.9325 127.69 49.9824 127.628 50.0383C118.652 40.813 108.589 27.0635 108.935 24.3368C108.945 24.2993 108.968 24.2661 108.999 24.2423C109.03 24.2184 109.068 24.205 109.107 24.2041Z" fill="#CEF2ED"/>
<path d="M118.646 75.596L119.298 75.0429C119.298 67.2998 121.832 58.6663 126.648 52.6433L126.454 52.4608C121.587 58.5391 118.613 67.8418 118.646 75.596Z" fill="#4C3F42"/>
<path d="M121.642 76.6523L122.199 76.1656C121.085 69.3074 122.945 59.2304 127.289 53.0193L127.083 52.8368C122.606 59.2304 120.445 69.6559 121.642 76.6523Z" fill="#4C3F42"/>
<path d="M124.237 78.3502L124.699 77.7197C122.567 69.7444 123.936 58.2514 128.525 52.7096L128.336 52.4773C123.686 58.1132 122.06 70.3804 124.237 78.3502Z" fill="#4C3F42"/>
<path d="M129.065 49.6179C129.683 48.9598 129.321 48.0472 127.952 48.2076C126.582 48.368 125.98 49.1921 126.376 50.0272C126.771 50.8624 129.065 49.6179 129.065 49.6179Z" fill="#664950"/>
<path d="M157.359 23.2639C158.367 23.8501 159.704 28.767 157.51 34.5743C154.581 42.3174 138.331 46.0561 128.842 49.889L128.213 49.0428C134.183 40.0055 156.012 22.484 157.359 23.2639Z" fill="#A8E2DB"/>
<path d="M142.547 39.6183C137.713 42.0818 133.106 44.9634 128.781 48.2297C135.464 38.9989 156.068 22.5061 157.359 23.2638C158.289 23.8169 159.492 28.0203 157.961 33.2192C152.638 34.8826 147.478 37.0245 142.547 39.6183Z" fill="#8ECEC6"/>
<path d="M149.825 31.1784C146.449 33.0557 143.194 35.1412 140.08 37.4226C145.849 31.2558 156.48 23.7229 156.975 23.994C157.326 24.1875 157.794 25.7085 157.198 27.7383C154.652 28.6893 152.187 29.8396 149.825 31.1784Z" fill="#A8E2DB"/>
<path d="M129.065 49.6456C131.103 48.8381 133.414 48.0361 135.859 47.1844C144.886 44.0595 155.115 40.5143 157.376 34.5245C159.604 28.6563 158.161 23.8944 157.287 23.3855C156.112 22.7329 134.779 39.6736 128.519 48.827C128.445 48.767 128.362 48.7168 128.274 48.6777C130.942 44.773 136.945 38.7223 144.423 32.3398C149.134 28.3356 156.479 22.578 157.421 23.12C158.562 23.7782 159.826 28.8057 157.638 34.6019C155.332 40.6857 145.036 44.2808 135.92 47.4333C133.464 48.285 131.142 49.0925 129.104 49.9C129.095 49.8146 129.082 49.7297 129.065 49.6456Z" fill="#CEF2ED"/>
<path d="M129.065 49.7341C131.293 48.6777 133.709 47.6379 136.171 46.5705C144.524 42.9755 152.782 39.4192 154.48 34.8563C156.017 30.7469 155.037 27.6663 154.48 27.3179C153.695 26.8975 136.076 39.9557 128.642 48.9985C128.573 48.9511 128.498 48.9121 128.419 48.8823C131.76 44.8338 138.12 39.021 144.875 33.6838C148.661 30.6916 153.951 26.8146 154.575 27.163C155.332 27.5834 156.184 30.8576 154.675 34.9061C152.949 39.563 144.652 43.158 136.232 46.7972C133.732 47.8868 131.293 48.9155 129.065 50.0216C129.072 49.9259 129.072 49.8298 129.065 49.7341Z" fill="#CEF2ED"/>
<path d="M106.573 21.1566C106.479 19.5416 115.316 25.0558 118.062 28.9605C119.566 31.2184 120.824 33.6286 121.815 36.1505C117.961 31.2558 106.663 22.6167 106.573 21.1566Z" fill="#A8E2DB"/>
<path d="M147.442 86.7571C149.307 83.682 151.128 73.9423 146.512 65.6351C141.895 57.3279 132.963 55.0769 131.56 55.7738C130.157 56.4706 137.474 78.3172 139.211 80.9277C140.949 83.5382 147.442 86.7571 147.442 86.7571Z" fill="#664950"/>
<path d="M147.269 85.9717C148.995 83.2063 150.61 73.7321 146.233 65.6904C141.778 57.5546 133.481 55.7018 132.161 56.3766C130.842 57.0513 137.758 77.8802 139.401 80.3414C141.043 82.8026 147.269 85.9717 147.269 85.9717Z" fill="#4F3138"/>
<path d="M147.007 85.2306C148.622 82.6035 150.226 73.9423 146.094 66.1992C141.912 58.3677 133.994 56.1166 132.729 56.7472C131.465 57.3777 138.025 77.3824 139.557 79.7551C141.088 82.1278 147.007 85.2306 147.007 85.2306Z" fill="#DD3A65"/>
<path d="M145.376 73.2786C146.038 72.2775 146.668 68.8153 144.546 64.8387C141.695 59.4904 135.079 57.2117 133.966 57.3168C132.852 57.4219 140.486 69.9325 141.528 71.0829C142.474 72.1448 145.376 73.2786 145.376 73.2786Z" fill="#F9437C"/>
<path d="M145.214 74.7167C145.805 74.1636 146.606 72.6316 146.796 70.3584C147.329 71.1644 147.734 72.0466 147.999 72.9745C148.806 75.9334 147.898 78.0351 147.325 78.555C147.325 78.555 145.598 77.2553 145.131 76.4091C144.764 75.578 144.441 74.7288 144.162 73.8649C144.758 74.3572 145.214 74.7167 145.214 74.7167Z" fill="#F9437C"/>
<path d="M134.923 64.269C136.783 64.103 138.331 62.1949 138.888 60.6795C139.378 59.3466 139.161 58.2847 138.331 57.9141L138.214 58.1685C138.922 58.4838 139.078 59.3798 138.638 60.5799C137.992 62.3498 135.993 64.4847 133.938 63.8984L133.86 64.1694C134.205 64.2679 134.566 64.3017 134.923 64.269Z" fill="#4F3138"/>
<path d="M137.786 70.1038C138.721 69.9979 139.616 69.6664 140.392 69.1381C141.169 68.6098 141.803 67.9008 142.241 67.073C143.56 64.8109 143.661 62.0953 142.87 61.2657L142.664 61.4593C143.371 62.2004 143.221 64.8109 141.996 66.9292C141.183 68.3174 139.295 70.5131 135.697 69.6448L135.631 69.9213C136.334 70.0974 137.062 70.1591 137.786 70.1038Z" fill="#4F3138"/>
<path d="M141.004 75.7287C142.939 75.6145 144.773 74.832 146.189 73.5164C147.23 72.449 148.238 70.5519 147.108 67.5819L146.84 67.6815C147.692 69.9269 147.397 71.8738 145.983 73.3228C143.872 75.4854 139.963 75.9333 137.552 75.1148L137.457 75.3803C138.603 75.7367 139.81 75.8553 141.004 75.7287Z" fill="#4F3138"/>
<path d="M143.41 80.8779C144.528 80.7765 145.609 80.4329 146.579 79.8713C148.127 78.9697 149.084 77.659 149.068 76.4809H148.784C148.784 77.5871 147.898 78.7707 146.434 79.6224C145.404 80.2423 144.229 80.5834 143.025 80.6115C141.821 80.6397 140.631 80.3539 139.573 79.7828L139.428 80.0261C140.634 80.7146 142.026 81.0124 143.41 80.8779Z" fill="#4F3138"/>
<path d="M147.258 85.6288C148.455 77.8857 141.494 59.9771 132.779 56.6144L132.679 56.8798C141.266 60.1983 148.143 77.9355 146.952 85.5845L147.258 85.6288Z" fill="#4F3138"/>
<path d="M130.352 50.691C131.309 50.5637 131.571 49.618 130.285 48.899C128.998 48.18 127.94 48.4455 127.762 49.347C127.584 50.2485 130.352 50.691 130.352 50.691Z" fill="#664950"/>
<path d="M124.209 51.6809C123.998 50.6467 126.994 48.6224 128.325 48.5782C129.655 48.5339 133.114 51.3823 133.409 52.1732C133.704 52.9641 132.657 55.9065 131.889 56.3544C131.12 56.8024 124.822 54.7284 124.209 51.6809Z" fill="#7F5E65"/>
<path d="M133.381 53.1964C133.153 54.3744 132.557 56.3544 132 56.6808C131.231 57.1287 124.822 54.7284 124.204 51.6754C124.414 51.1403 124.677 50.6271 124.989 50.1434C127.512 52.3944 133.158 54.1477 133.381 53.1964Z" fill="#664950"/>
<path d="M120.495 48.6114C122.049 47.6324 124.883 47.826 125.301 50.0493C125.718 52.2727 119.827 54.4353 119.092 51.775C118.791 50.6965 119.983 48.9155 120.495 48.6114Z" fill="#7F5E65"/>
<path d="M125.301 50.0493C125.858 52.5437 119.693 54.5624 118.958 51.9021C118.808 51.349 119.27 50.1212 119.587 49.5128C121.269 50.1876 124.109 50.8347 125.301 50.0493Z" fill="#664950"/>
<path d="M118.251 54.5736C118.251 54.5736 124.571 49.0428 121.726 46.9909C120.796 46.3217 115.16 47.9588 114.358 48.8382C112.677 50.6855 118.251 54.5736 118.251 54.5736Z" fill="#7F5E65"/>
<path d="M117.633 52.0295C119.86 51.3824 122.333 48.3681 122.155 47.4168C123.825 49.7176 118.312 54.828 118.312 54.828C118.312 54.828 114.81 52.1733 114.152 50.2486C114.915 50.7684 115.795 52.5549 117.633 52.0295Z" fill="#664950"/>
<path d="M130.09 82.7086C134.511 73.5662 135.48 59.7338 131.165 52.9973L130.914 53.2351C135.185 59.872 134.038 72.908 129.655 82.0836L130.09 82.7086Z" fill="#7F5E65"/>
<path d="M128.508 80.5183C132.406 72.2996 133.52 59.2691 130.14 52.2782L129.867 52.4884C133.247 59.3853 131.983 71.6027 128.096 79.8491L128.508 80.5183Z" fill="#7F5E65"/>
<path d="M126.838 77.6257C131.036 70.1371 132.111 58.08 128.809 52.1455L128.542 52.3778C131.81 58.2128 130.48 69.6227 126.314 77.1003L126.838 77.6257Z" fill="#7F5E65"/>
<path d="M112.46 48.097C113.774 49.1258 117.081 52.3834 117.081 52.3834C117.081 52.3834 113.384 51.4044 111.68 50.7739C111.768 50.0721 111.94 49.3832 112.192 48.722C112.27 48.5119 112.359 48.3017 112.46 48.097Z" fill="#47393C"/>
<path d="M123.402 48.2464C121.781 49.6402 118.312 52.118 118.312 52.118C118.312 52.118 120.278 47.9312 121.336 46.106C122.16 46.6769 122.862 47.4044 123.402 48.2464Z" fill="#47393C"/>
<path d="M112.699 48.9155C113.506 49.5516 115.539 51.5482 115.539 51.5482C115.539 51.5482 113.273 50.9509 112.198 50.5582C112.252 50.1284 112.358 49.7067 112.515 49.3027C112.588 49.1644 112.643 49.0372 112.699 48.9155Z" fill="#FFBA55"/>
<path d="M122.477 48.3625C121.525 49.1755 119.387 50.962 119.387 50.962C119.387 50.962 120.651 48.1966 121.269 47.1291C121.749 47.4577 122.16 47.8768 122.477 48.3625Z" fill="#FFBA55"/>
<path d="M130.736 53.4065C130.686 53.266 130.683 53.1134 130.727 52.971C130.771 52.8287 130.86 52.7041 130.981 52.6156C131.209 52.505 131.46 52.682 131.538 53.0083C131.585 53.1473 131.586 53.2976 131.542 53.4376C131.498 53.5776 131.411 53.7003 131.293 53.7881C131.087 53.8932 130.836 53.7273 130.736 53.4065Z" fill="#7F5E65"/>
<path d="M129.667 52.6709C129.59 52.5218 129.561 52.3533 129.583 52.1875C129.605 52.0217 129.677 51.8663 129.789 51.7417C130.001 51.5924 130.29 51.7749 130.435 52.14C130.509 52.2889 130.537 52.4567 130.514 52.6214C130.491 52.786 130.419 52.9401 130.307 53.0636C130.095 53.2129 129.806 53.036 129.667 52.6709Z" fill="#7F5E65"/>
<path d="M128.408 52.787C128.314 52.647 128.264 52.4824 128.264 52.3141C128.264 52.1458 128.314 51.9812 128.408 51.8412C128.603 51.6532 128.915 51.7749 129.104 52.1122C129.197 52.2517 129.247 52.4152 129.247 52.5824C129.247 52.7496 129.197 52.9131 129.104 53.0525C128.904 53.2405 128.598 53.1188 128.408 52.787Z" fill="#7F5E65"/>
<path d="M128.38 52.3557C128.354 52.2875 128.349 52.2132 128.366 52.1422C128.383 52.0712 128.421 52.0069 128.475 51.9575C128.592 51.8469 128.731 51.8469 128.792 51.9575C128.818 52.0256 128.823 52.1 128.807 52.171C128.79 52.242 128.752 52.3063 128.698 52.3557C128.586 52.4608 128.442 52.4608 128.38 52.3557Z" fill="#BC959F"/>
<path d="M129.694 52.2783C129.669 52.2104 129.666 52.1366 129.684 52.0666C129.701 51.9965 129.74 51.9335 129.795 51.8856C129.912 51.775 130.051 51.775 130.112 51.8856C130.136 51.9537 130.139 52.027 130.121 52.0968C130.103 52.1665 130.065 52.2296 130.012 52.2783C129.895 52.3889 129.756 52.3889 129.694 52.2783Z" fill="#BC959F"/>
<path d="M130.819 53.1521C130.796 53.084 130.793 53.0106 130.811 52.9409C130.828 52.8712 130.866 52.8081 130.92 52.7594C131.037 52.6543 131.176 52.6543 131.231 52.7594C131.256 52.8273 131.26 52.901 131.242 52.9711C131.224 53.0411 131.186 53.1042 131.131 53.1521C131.02 53.2571 130.881 53.2571 130.819 53.1521Z" fill="#BC959F"/>
<path d="M111.919 76.8016C113.033 72.2885 118.83 54.2195 118.886 54.037L117.978 54.0093C117.922 54.1863 112.911 72.2608 111.769 76.7629L111.919 76.8016Z" fill="#664950"/>
<path d="M95.5699 36.6925C78.5188 43.0142 89.773 78.1733 109.246 88.2669C132.479 100.352 172.985 114.621 174.689 155.228C175.831 182.384 155.255 197.538 131.382 194.253L134.79 179.547C145.476 180.271 163.663 174.68 163.663 152.313C163.663 129.947 131.967 108.498 112.281 97.1161C79.3708 78.0903 75.9071 40.9457 95.5699 36.6925Z" fill="#ED8B7E"/>
<path d="M174.728 156.157C175.363 182.705 154.998 197.499 131.404 194.253L132.746 188.462C154.074 190.564 172.59 178.275 174.728 156.157Z" fill="#D8645B"/>
<path d="M95.5699 36.6925L95.4146 36.7534L95.4978 36.7091L95.5699 36.6925Z" fill="#D8645B"/>
<path d="M93.0251 37.478C78.4631 45.8073 83.4025 77.399 113.328 94.2678C132.852 105.28 164.242 126.031 163.919 147.678C163.902 148.984 163.811 150.288 163.646 151.583C162.978 129.46 131.755 108.371 112.281 97.1106C80.8743 78.9531 76.2858 44.2974 93.0251 37.478Z" fill="#D8645B"/>
<path d="M63.617 198.512H93.4649C93.4649 198.512 77.6556 193.501 72.3709 193.429C64.7809 193.329 63.617 198.512 63.617 198.512Z" fill="#47393C"/>
<path d="M61.4678 181.731C58.1266 189.856 49.1054 192.71 41.0365 192.71L40.5576 191.504C40.5576 191.504 59.1234 186.255 53.8889 166.549C52.8866 162.783 53.5548 156.782 58.7559 162.645C63.957 168.507 62.7987 178.424 61.4678 181.731Z" fill="#47393C"/>
<path d="M34.1758 133.055C35.5179 123.653 48.5819 102.249 50.6089 101.884C52.6358 101.519 60.9888 118.117 48.0585 129.775C45.8978 131.722 33.7693 135.903 34.1758 133.055Z" fill="#47393C"/>
<path d="M34.1869 131.949C35.9466 123.581 47.4792 104.743 48.7544 104.776C50.0296 104.809 52.1457 118.603 44.1269 127.591C42.6345 129.244 33.6746 134.382 34.1869 131.949Z" fill="#604C51"/>
<path d="M35.8186 128.791C37.0883 122.795 45.38 109.245 46.2932 109.256C47.2065 109.267 48.7267 119.184 42.952 125.644C41.8884 126.844 35.4511 130.533 35.8186 128.791Z" fill="#6D535A"/>
<path d="M42.7124 159.243L54.646 131.324C54.646 131.324 69.0854 136.141 77.7836 132.845C87.6568 124.51 107.236 121.02 126.153 130.411C145.248 139.891 156.162 169.558 138.654 198.495H74.7654C74.6429 198.307 74.5371 198.119 74.4202 197.942L74.2977 197.715C73.3176 196.167 72.4303 194.598 71.6359 193.008C61.0945 175.017 49.6008 162.423 42.7124 159.243Z" fill="#47393C"/>
<path d="M80.0612 131.136C90.4746 124.09 108.584 121.734 126.136 130.428C133.453 134.062 139.568 140.66 143.343 149.045C140.642 161.24 121.564 188.053 104.418 188.053C85.3514 188.053 78.7582 160.676 78.7582 146.473C78.7749 141.44 76.7201 135.101 80.0612 131.136Z" fill="#604C51"/>
<path d="M113.757 144.636C98.6828 144.636 86.2313 138.669 84.2433 130.92C93.71 125.141 109.302 123.426 124.41 130.92C128.603 133.052 132.263 136.086 135.124 139.803C129.7 142.789 122.138 144.636 113.757 144.636Z" fill="#70575E"/>
<path d="M125.696 149.758C150.276 147.479 148.316 172.86 134.561 194.375L108.617 195.531C105.432 182.157 108.645 151.34 125.696 149.758Z" fill="#47393C"/>
<path d="M68.2892 159.608C62.2584 166.898 42.9687 167.628 35.774 164.956C35.774 164.956 52.4019 132.701 73.3066 133.874C73.3066 133.874 77.8338 148.054 68.2892 159.608Z" fill="#604C51"/>
<path d="M55.8379 157.418C48.7657 160.062 38.0517 164.348 37.0605 164.719C37.0605 164.719 39.8949 143.099 54.6462 146.296C59.541 147.363 64.4692 154.199 55.8379 157.418Z" fill="#47393C"/>
<path d="M41.7992 161.793C48.0528 159.243 59.062 155.958 58.0596 154.133C57.0573 152.308 49.8738 151.096 48.593 152.191C47.3122 153.287 41.7992 161.793 41.7992 161.793Z" fill="#E2CDA1"/>
<path d="M45.8532 159.868C50.2413 158.076 57.9817 155.775 57.2634 154.492C56.545 153.209 53.7273 152.601 52.8474 153.386C51.9676 154.171 45.8532 159.868 45.8532 159.868Z" fill="#FFF6E1"/>
<path d="M73.1897 133.857C72.1706 127.84 63.7231 120.406 48.2256 122.751C27.7608 125.854 10.7097 178.374 4.23339 187.312L6.95642 188.766C6.95642 188.766 37.027 171.765 48.7211 153.027C57.4862 139.067 73.1897 133.857 73.1897 133.857Z" fill="#604C51"/>
<path d="M15.582 165.471C24.0129 147.363 34.4485 124.687 47.5682 122.674C52.7331 121.96 57.9925 122.369 62.9822 123.874C60.6434 131.064 55.5258 139.615 48.3422 147.612C36.3196 161.002 22.5762 168.269 15.582 165.471Z" fill="#6D535A"/>
<path d="M35.2061 146.019L54.4457 137.137C54.4457 137.137 53.6828 129.947 48.4817 130.334C43.2806 130.721 35.2061 146.019 35.2061 146.019Z" fill="#604C51"/>
<path d="M49.5341 146.019C57.9705 139.908 76.5586 139.001 70.5055 129.698C64.4524 120.395 54.9022 135.533 49.5341 146.019Z" fill="#6D535A"/>
<path d="M48.593 152.584C50.4808 150.012 52.285 147.546 54.6461 146.296C52.7411 148.29 51.0278 150.456 49.5285 152.767C37.2442 171.848 7.05665 188.783 7.05665 188.783L5.748 188.092C11.7454 184.27 36.42 169.188 48.593 152.584Z" fill="#47393C"/>
<path d="M52.0344 125.08C57.603 116.784 80.9077 102.221 83.1797 102.957C85.4517 103.692 84.7724 126.296 65.917 130.057C62.9489 130.649 50.3861 127.519 52.0344 125.08Z" fill="#604C51"/>
<path d="M53.8889 125.943C59.1345 117.431 81.242 103.648 83.5418 104.273C85.8417 104.898 86.6491 125.699 67.9497 130.306C65.0261 131.025 52.3519 128.453 53.8889 125.943Z" fill="#47393C"/>
<path d="M54.2229 126.413C58.1989 120.511 77.2381 110.119 78.8585 110.639C80.479 111.159 77.5944 127.281 64.1183 129.997C62.0134 130.395 53.0479 128.16 54.2229 126.413Z" fill="#D8645B"/>
<path d="M38.4471 144.183L51.0377 138.575L46.8111 135.809C46.8111 135.809 40.2123 140.593 38.4471 144.183Z" fill="#47393C"/>
<path d="M40.5633 142.966L49.0276 139.095L46.5217 137.596C46.5217 137.596 41.8775 140.588 40.5633 142.966Z" fill="#FF4D63"/>
<path d="M9.13391 187.566C7.24615 191.438 2.07289 193.623 0.708573 187.179C-0.65574 180.736 9.13391 187.566 9.13391 187.566Z" fill="#D8645B"/>
<path d="M126.838 141.832C151.507 142.319 152.414 176.969 138.66 198.489H116.257C113.078 185.138 101.144 141.351 126.838 141.832Z" fill="#604C51"/>
<path d="M113.44 153.873C113.518 153.005 113.612 152.153 113.724 151.312C115.784 146.263 119.716 142.961 126.565 143.093C131.883 143.198 135.993 145.035 139.011 148.038C139.134 150.862 139.065 153.691 138.805 156.505C137.368 172.312 130.53 184.541 123.524 183.816C116.519 183.092 112.003 169.68 113.44 153.873Z" fill="#70575E"/>
<path d="M103.756 198.512H135.926C135.926 198.512 118.886 192.395 113.189 192.312C105.009 192.19 103.756 198.512 103.756 198.512Z" fill="#604C51"/>
<path d="M106.284 198.512H102.536C102.536 198.512 106.033 194.701 106.718 194.64C107.704 194.574 106.284 198.512 106.284 198.512Z" fill="#896F77"/>
<path d="M110.377 198.512H106.624C106.624 198.512 109.063 194.701 109.731 194.64C110.689 194.574 110.377 198.512 110.377 198.512Z" fill="#896F77"/>
<path d="M114.698 198.512H110.945C110.945 198.512 112.933 194.701 113.596 194.64C114.553 194.574 114.698 198.512 114.698 198.512Z" fill="#896F77"/>
<path d="M90.9647 183.407C84.5775 191.15 72.3376 191.775 63.1215 190.52L62.9545 189.226C62.9545 189.226 85.8582 186.77 86.1088 165.924C86.1589 161.937 88.8263 155.969 92.9193 162.705C97.0122 169.442 93.5652 180.255 90.9647 183.407Z" fill="#47393C"/>
<path d="M67.3814 190.061C64.3521 191.526 60.8438 195 60.2758 195.486C59.7078 195.973 60.0253 193.191 60.9218 192.035C61.6291 191.103 62.3994 190.22 63.2272 189.391C64.0848 188.54 69.7648 188.905 67.3814 190.061Z" fill="#47393C"/>
<path d="M51.6612 189.519C49.5006 192.046 47.7632 196.548 47.4513 197.212C47.1395 197.876 46.2262 195.287 46.5548 193.893C46.8011 192.78 47.1287 191.686 47.5349 190.619C47.9748 189.524 53.3819 187.522 51.6612 189.519Z" fill="#47393C"/>
<path d="M89.3107 182.677C82.5838 190.298 70.9343 190.901 61.8463 189.673L61.6792 188.423C61.6792 188.423 84.6387 186.045 85.4517 164.995C85.6132 160.847 88.6091 154.487 92.7243 161.527C96.8395 168.568 92.1006 179.519 89.3107 182.677Z" fill="#604C51"/>
<path d="M77.5831 115.749C77.7279 115.794 77.8393 115.976 77.9061 116.264C76.1297 121.275 71.8586 127.723 63.7785 129.333C62.5423 129.582 58.9282 128.913 56.4001 127.961C63.2551 122.209 76.2522 115.318 77.5831 115.749Z" fill="#ED8B7E"/>
<path d="M58.1934 152.263C56.8291 150.969 49.9852 156.019 49.9852 156.019C49.9852 156.019 53.9724 151.379 53.4211 150.615C52.8698 149.852 55.6987 148.619 56.9962 149.327C58.2936 150.035 58.1934 152.263 58.1934 152.263Z" fill="#47393C"/>
<path d="M35.206 146.019L55.615 136.689L39.2154 143.027L35.206 146.019Z" fill="#47393C"/>
<path d="M45.9813 133.282L48.2087 133.16C48.2087 133.16 42.1946 137.629 39.9672 140.82C39.9672 140.82 41.6043 137.264 45.9813 133.282Z" fill="#47393C"/>
<path d="M3.65987 188.235C3.01391 187.433 2.31782 186.128 2.9248 185.807C3.53179 185.487 5.22465 186.184 6.30497 187.063C7.63587 188.169 6.73374 188.49 5.67013 188.783C4.74017 189.032 4.42277 189.181 3.65987 188.235Z" fill="#9B2F2A"/>
<path d="M63.734 188.081C60.6489 187.727 57.9983 185.686 56.35 187.08C54.7016 188.473 54.1225 193.949 54.2506 194.27C54.3787 194.59 57.2632 189.773 58.0595 189.469C58.8558 189.165 62.5144 190.575 63.5168 190.575C64.5191 190.575 65.3266 188.291 63.734 188.081Z" fill="#604C51"/>
<path d="M65.2655 188.086C62.2083 188.689 59.14 187.533 57.9205 189.369C56.7009 191.205 57.6142 196.631 57.8036 196.886C57.9929 197.14 59.502 191.659 60.1813 191.128C60.8607 190.597 64.7309 190.824 65.7166 190.575C66.7022 190.326 66.8414 187.782 65.2655 188.086Z" fill="#604C51"/>
<path d="M68.2781 187.251C65.4158 188.528 62.1526 188.103 61.3674 190.182C60.5822 192.262 62.5145 197.372 62.7484 197.555C62.9823 197.737 63.3554 192.057 63.9123 191.377C64.4691 190.697 68.2892 190.049 69.1969 189.552C70.1046 189.054 69.7538 186.587 68.2781 187.251Z" fill="#604C51"/>
<path d="M44.7675 189.662C42.2282 189.629 39.9284 188.191 38.6921 189.469C37.4559 190.746 37.3891 195.237 37.506 195.475C37.6229 195.713 39.6276 191.565 40.2513 191.25C40.875 190.934 43.9433 191.77 44.7731 191.709C45.6028 191.648 46.0928 189.673 44.7675 189.662Z" fill="#47393C"/>
<path d="M46.0093 189.541C43.5702 190.282 40.9975 189.601 40.1344 191.2C39.2713 192.798 40.4184 197.123 40.591 197.317C40.7637 197.51 41.5878 192.925 42.1001 192.433C42.6125 191.941 45.781 191.808 46.555 191.499C47.3291 191.189 47.2678 189.153 46.0093 189.541Z" fill="#47393C"/>
<path d="M48.3982 188.6C46.1707 189.884 43.5033 189.812 42.991 191.565C42.4787 193.318 44.4556 197.295 44.6616 197.444C44.8676 197.594 44.7563 192.926 45.1628 192.328C45.5693 191.731 48.6265 190.874 49.3281 190.392C50.0298 189.911 49.5509 187.942 48.3982 188.6Z" fill="#47393C"/>
<path d="M180.241 183.025L174.438 175.122L175.853 175.166L180.475 182.373L180.241 183.025Z" fill="#47393C"/>
<path d="M179.74 198.512H178.008C178.008 198.512 180.291 189.867 180.235 182.86L181.115 181.2C181.115 181.2 181.26 193.18 179.74 198.512Z" fill="#47393C"/>
<path d="M189.869 183.65L182.312 176.068L183.732 176.112L189.958 183.025L189.869 183.65Z" fill="#47393C"/>
<path d="M192.815 198.512H191.083C191.083 198.512 191.445 190.216 189.858 183.49L190.365 181.881C190.365 181.881 193.138 193.396 192.815 198.512Z" fill="#47393C"/>
<path d="M202.566 185.476L194.508 178.817L195.933 178.855L202.61 184.923L202.566 185.476Z" fill="#47393C"/>
<path d="M206.469 198.512H204.743C204.743 198.512 204.559 191.233 202.515 185.332L202.916 183.921C202.916 183.921 206.469 194.021 206.469 198.512Z" fill="#47393C"/>
<path d="M214.354 186.687L205.973 181.786L207.399 181.809L214.371 186.283L214.354 186.687Z" fill="#47393C"/>
<path d="M219.383 198.423H217.651C217.651 198.423 216.899 191.925 214.31 186.554L214.415 185.138C214.415 185.138 218.926 194.336 219.383 198.423Z" fill="#47393C"/>
<path d="M221.994 178.44L221.632 178.026C230.175 170.736 243.216 167.185 249.748 166.964V167.517C243.311 167.733 230.414 171.239 221.994 178.44Z" fill="#56494B"/>
<path d="M219.984 177.334L219.6 176.931C228.087 169.033 241.997 161.533 251.965 159.481L252.076 160.034C242.197 162.053 228.404 169.486 219.984 177.334Z" fill="#56494B"/>
<path d="M159.637 165.604L155.744 158.756L165.167 165.554L159.637 165.604Z" fill="#3F3436"/>
<path d="M156.418 167.694L148.477 159.586L162.521 166.721L156.418 167.694Z" fill="#3F3436"/>
<path d="M154.792 165.344C164.309 178.579 170.885 185.968 173.308 187.682C175.73 189.397 198.367 197.997 215.869 185.968L220.881 184.419L222.958 178.75L208.084 174.464L154.792 165.344Z" fill="#635357"/>
<path d="M156.246 166.245C165.356 178.651 171.654 185.603 173.971 187.185C176.287 188.766 197.704 197.002 214.432 185.653L220.001 184.364L221.504 178.667L210.846 174.851L156.246 166.245Z" fill="#3F3436"/>
<path d="M207.85 188.258C202.281 185.492 192.698 184.685 183.46 182.589C175.986 180.891 170.563 177.987 165.445 177.849C169.56 182.826 172.367 186.311 173.77 187.284C175.78 188.678 192.676 194.701 207.85 188.258Z" fill="#514246"/>
<path d="M181.193 187.738C178.474 187.17 175.711 186.833 172.935 186.731C173.125 186.906 173.326 187.068 173.536 187.218C174.839 188.125 182.357 190.957 191.601 191.089C188.281 189.558 184.786 188.432 181.193 187.738Z" fill="#635357"/>
<path d="M215.112 185.946C213.619 186.034 210.289 184.121 210.289 184.121C210.289 184.121 215.763 185.16 216.32 185.409C215.947 185.648 215.54 185.829 215.112 185.946Z" fill="#47393C"/>
<path d="M220.836 185.127C213.909 182.638 205.801 181.648 205.283 182.329C205.144 182.517 205.283 183.092 205.478 183.435L205.082 183.379C204.776 183.02 204.398 181.72 205.082 181.328C206.753 180.315 219.828 184.452 220.92 184.795L220.836 185.127Z" fill="#47393C"/>
<path d="M205.489 181.654C206.77 181.527 212.667 181.914 220.97 184.917C220.97 184.917 224.951 180.365 224.951 179.508C224.951 178.651 223.916 177.296 223.392 177.014C222.869 176.732 215.379 174.751 214.31 174.696C210.417 174.497 201.942 182.013 205.489 181.654Z" fill="#635357"/>
<path d="M222.969 177.229C222.484 176.991 215.518 175.133 214.527 175.078C213.096 174.995 210.996 176.046 209.187 177.323C211.705 178.258 214.319 178.913 216.983 179.276C219.423 179.649 221.894 179.784 224.361 179.679C224.366 179.635 224.366 179.591 224.361 179.547C224.209 178.627 223.712 177.799 222.969 177.229Z" fill="#755E64"/>
<path d="M196.384 185.68L201.624 180.006L200.21 180.039L196.106 185.21L196.384 185.68Z" fill="#47393C"/>
<path d="M203.345 176.964C202.593 176.72 199.831 178.357 199.007 179.353C198.183 180.349 198.595 182.03 199.347 182.273C200.099 182.517 202.181 181.167 203.005 180.183C203.83 179.198 204.091 177.229 203.345 176.964Z" fill="#47393C"/>
<path d="M196.88 176.853C196.162 176.538 193.244 177.882 192.319 178.783C191.395 179.685 191.629 181.399 192.319 181.72C193.01 182.041 195.254 180.924 196.178 180.022C197.103 179.121 197.598 177.174 196.88 176.853Z" fill="#47393C"/>
<path d="M187.508 175.824C186.762 175.481 183.571 176.577 182.53 177.379C181.488 178.18 181.627 179.807 182.374 180.144C183.12 180.481 185.548 179.591 186.589 178.761C187.63 177.932 188.254 176.162 187.508 175.824Z" fill="#47393C"/>
<path d="M177.184 172.959C176.438 172.617 173.247 173.717 172.205 174.514C171.164 175.31 171.303 176.942 172.049 177.279C172.796 177.616 175.224 176.698 176.265 175.902C177.306 175.105 177.93 173.297 177.184 172.959Z" fill="#47393C"/>
<path d="M186.311 186.609L194.781 180.166L193.349 180.199L186.294 186.078L186.311 186.609Z" fill="#47393C"/>
<path d="M174.761 185.758L184.724 178.877L183.048 178.916L174.745 185.194L174.761 185.758Z" fill="#47393C"/>
<path d="M163.173 185.758L174.36 175.957L172.796 175.504L163.156 185.194L163.173 185.758Z" fill="#47393C"/>
<path d="M151.161 164.055C153.149 165.775 175.73 183.302 203.507 180.039L210.863 174.851C190.521 168.38 173.135 165.344 151.161 164.055Z" fill="#6D5A5E"/>
<path d="M203.323 178.922L209.638 174.497C190.248 168.413 173.414 165.471 152.515 164.165C158.351 168.485 178.815 181.803 203.323 178.922Z" fill="#9E727E"/>
<path d="M198.116 198.512H199.848C199.848 198.512 196.847 191.41 196.357 185.536L195.438 183.988C195.438 183.988 196.228 194.043 198.116 198.512Z" fill="#47393C"/>
<path d="M181.533 198.512H183.265C183.265 198.512 183.927 191.875 186.339 186.482L186.032 185.194C186.032 185.194 181.839 194.413 181.533 198.512Z" fill="#47393C"/>
<path d="M169.159 198.512H171.197C171.197 198.512 171.977 191.421 174.812 185.669L174.45 184.298C174.45 184.298 169.51 194.137 169.159 198.512Z" fill="#47393C"/>
<path d="M157.554 198.512H159.592C159.592 198.512 160.372 191.421 163.212 185.669L162.85 184.298C162.85 184.298 157.916 194.137 157.554 198.512Z" fill="#47393C"/>
<path d="M217.116 179.331C217.116 179.331 214.633 180.116 210.946 178.971C210.946 178.971 211.041 176.837 211.848 175.874L217.116 179.331Z" fill="#47393C"/>
<path d="M221.087 179.707C222.601 180.343 224.183 180.805 225.803 181.084C225.803 181.084 227.273 179.309 228.109 178.048L221.087 179.707Z" fill="#47393C"/>
<path d="M251.358 159.265C251.308 159.367 251.278 159.477 251.271 159.589C251.264 159.702 251.279 159.815 251.316 159.922C251.352 160.029 251.41 160.127 251.485 160.212C251.56 160.297 251.651 160.366 251.753 160.416C251.855 160.465 251.966 160.495 252.079 160.502C252.193 160.509 252.307 160.494 252.414 160.458C252.522 160.421 252.621 160.364 252.706 160.289C252.792 160.215 252.861 160.124 252.911 160.023C253.013 159.818 253.028 159.582 252.954 159.366C252.879 159.151 252.722 158.973 252.516 158.873C252.31 158.772 252.072 158.757 251.855 158.831C251.638 158.904 251.459 159.061 251.358 159.265Z" fill="#56494B"/>
<path d="M248.646 167.064C248.613 167.23 248.63 167.402 248.696 167.558C248.761 167.715 248.872 167.848 249.014 167.942C249.156 168.036 249.322 168.086 249.493 168.086C249.663 168.086 249.83 168.036 249.972 167.942C250.113 167.848 250.224 167.715 250.29 167.559C250.355 167.402 250.373 167.23 250.34 167.064C250.307 166.898 250.225 166.745 250.105 166.625C249.985 166.505 249.832 166.423 249.665 166.389C249.553 166.366 249.438 166.366 249.327 166.388C249.215 166.41 249.109 166.453 249.014 166.516C248.919 166.579 248.838 166.659 248.775 166.753C248.712 166.847 248.668 166.953 248.646 167.064Z" fill="#56494B"/>
<path d="M154.313 164.536C159.303 168.183 164.727 171.203 170.462 173.529L171.704 173.623C182.418 174.381 191.801 173.264 196.362 171.002C182.669 167.407 169.683 165.498 154.313 164.536Z" fill="#B5919C"/>
<path d="M198.924 171.754C193.723 173.772 186.055 175.072 177.501 175.072C176.317 175.072 175.149 175.046 173.998 174.995C181.95 177.865 191.657 179.829 202.165 178.59L208.045 174.442C204.943 173.446 201.914 172.561 198.924 171.754Z" fill="#B5919C"/>
<path d="M189.83 180.061H189.663H189.485L189.524 178.861L184.545 175.67L163.758 171.422L163.719 171.383L157.521 164.508L158.022 164.547L163.83 170.985L165.222 165.227L179.968 170.592L190.61 170.261L187.268 168.574L188.566 168.845L196.841 173.042L196.902 173.17L208.502 175.161L208.969 175.946L208.674 176.123L208.284 175.47L197.069 173.551L197.771 175.111L203.551 178.535L203.161 179.696L202.833 179.591L203.133 178.689L197.565 175.404L185.147 175.625L189.841 178.634L189.83 180.061ZM183.899 175.161L179.84 170.935L165.467 165.664L164.147 171.145L183.899 175.161ZM184.629 175.31L197.381 175.089L196.59 173.319L191.25 170.609L180.33 170.946L184.495 175.282L184.629 175.31Z" fill="#6D5A5E"/>
<path d="M215.936 179.099C214.475 179.429 212.949 179.341 211.537 178.844C211.537 178.844 211.603 177.323 212.177 176.632L215.936 179.099Z" fill="#FF4571"/>
<path d="M222.44 179.823C223.352 180.204 224.305 180.482 225.28 180.653C225.28 180.653 226.165 179.58 226.666 178.822L222.44 179.823Z" fill="#FF4571"/>
<path d="M122.572 190.774L119.593 186.847L120.373 187.013L122.706 190.498L122.572 190.774Z" fill="#99332E"/>
<path d="M121.943 199.098H120.829C120.829 199.098 122.5 194.12 122.611 190.702L123.107 190.016C123.107 190.016 122.984 196.034 121.943 199.098Z" fill="#99332E"/>
<path d="M128.453 191.117L125.028 187.245L125.796 187.411L128.542 190.846L128.453 191.117Z" fill="#99332E"/>
<path d="M129.065 199.109H127.996C127.996 199.109 128.848 194.347 128.442 191.051L128.803 190.387C128.803 190.387 129.622 196.156 129.065 199.109Z" fill="#99332E"/>
<path d="M133.236 191.775L129.861 186.974L130.507 186.93L133.286 191.521L133.236 191.775Z" fill="#99332E"/>
<path d="M134.495 199.115H133.62C133.62 199.115 133.888 194.767 133.236 191.709L133.481 191.084C133.481 191.084 134.634 196.416 134.495 199.115Z" fill="#99332E"/>
<path d="M124.61 185.608C122.288 190.404 113.824 191.747 109.781 190.586C104.051 188.977 98.7606 183.357 98.7606 183.357C98.7606 183.357 105.955 174.951 113.289 175.459C120.623 175.968 125.874 183.003 124.61 185.608Z" fill="#FFBA55"/>
<path d="M107.164 184.701C105.059 184.873 100.287 184.447 98.8108 183.357C98.8108 183.357 104.101 188.977 109.831 190.586C113.874 191.725 122.338 190.381 124.66 185.608C125.217 184.441 125.446 182.583 123.201 181.333C119.092 179.071 114.03 184.143 107.164 184.701Z" fill="#FFA143"/>
<path d="M120.445 179.325C118.73 177.345 116.04 175.957 112.281 175.952C108.01 175.952 103.928 179.27 101.812 181.311C105.315 183.601 114.108 182.306 120.445 179.325Z" fill="#FFD473"/>
<path d="M116.051 182.992C114.381 184.32 113.434 189.275 119.025 189.967C120.253 189.528 121.409 188.911 122.455 188.136L116.051 182.992Z" fill="#FF7C33"/>
<path d="M124.466 187.649C120.946 189.535 116.324 188.849 115.489 186.604C114.654 184.358 115.417 181.554 121.581 180.929C127.745 180.304 128.648 185.409 124.466 187.649Z" fill="#FFBA55"/>
<path d="M125.006 184.314C121.492 186.195 116.864 185.509 116.029 183.263C116.029 183.208 115.99 183.147 115.968 183.092C115.554 183.591 115.281 184.191 115.177 184.829C115.073 185.468 115.142 186.122 115.377 186.725C116.213 188.971 121.052 189.684 124.566 187.798C126.821 186.593 127.495 184.408 126.793 182.882C126.304 183.477 125.695 183.965 125.006 184.314Z" fill="#FFA143"/>
<path d="M122.428 184.851C121.425 185.061 120.083 187.489 121.988 188.722C122.954 188.571 123.858 188.151 124.594 187.511L122.428 184.851Z" fill="#FF7C33"/>
<path d="M129.399 188.772C127.4 190.359 121.793 190.188 121.381 186.903C120.968 183.617 129.349 182.135 130.747 184.69C131.326 185.785 131.398 187.185 129.399 188.772Z" fill="#FFBA55"/>
<path d="M122.75 185.044C123.686 185.182 124.635 185.193 125.574 185.077C126.828 184.977 128.044 184.599 129.132 183.971C127.5 183.142 124.087 183.684 122.75 185.044Z" fill="#FFD473"/>
<path d="M125.769 186.515C124.335 186.532 122.907 186.329 121.536 185.913C121.395 186.223 121.342 186.565 121.38 186.902C121.793 190.188 127.4 190.359 129.399 188.772C130.947 187.544 131.254 186.427 131.042 185.492C129.382 186.217 127.581 186.566 125.769 186.515Z" fill="#FFA143"/>
<path d="M135.709 185.382L135.558 185.31C135.742 178.601 138.977 169.436 145.058 165.803L145.159 166.66C139.195 170.222 135.892 178.772 135.709 185.382Z" fill="#D6524C"/>
<path d="M130.435 184.596C129.065 178.678 130.201 169.287 135.798 164.376L135.87 165.449C130.391 170.255 129.26 178.723 130.608 184.557L130.435 184.596Z" fill="#D6524C"/>
<path d="M125.769 185.808C125.702 186.72 127.384 188.988 129.11 188.966L129.388 188.772C129.922 188.371 130.376 187.874 130.725 187.306C129.717 186.775 125.802 185.31 125.769 185.808Z" fill="#FF7C33"/>
<path d="M134.478 190.42C132.401 190.514 125.262 187.445 125.741 185.63C126.22 183.816 139.891 183.302 141.171 185.686C141.873 186.985 135.191 190.387 134.478 190.42Z" fill="#FFBA55"/>
<path d="M126.426 185.669C126.726 184.718 130.491 184.115 134.222 184.087C130.24 184.032 125.997 184.64 125.73 185.63C125.345 187.08 129.845 189.342 132.718 190.133C129.906 189.225 125.991 187.074 126.426 185.669Z" fill="#FFA143"/>
<path d="M130.463 184.491C131.576 184.944 132.73 185.291 133.91 185.525C136.778 186.134 139.328 186.078 140.364 185.476C139.49 184.187 134.216 184.015 130.463 184.491Z" fill="#FFD473"/>
<path d="M133.52 187.135C129.227 187.135 125.724 186.438 125.724 185.586V185.559C125.724 185.586 125.724 185.608 125.696 185.631C125.217 187.445 132.379 190.514 134.433 190.42C135.113 190.392 141.361 187.218 141.171 185.83C140.62 186.571 137.418 187.135 133.52 187.135Z" fill="#FFA143"/>
<path d="M124.009 190.641L126.281 187.848L125.824 187.323L123.925 190.337L124.009 190.641Z" fill="#D6524C"/>
<path d="M123.769 199.114H124.688C124.688 199.114 123.781 193.976 124.003 190.564L123.664 189.779C123.664 189.779 123.185 195.796 123.769 199.114Z" fill="#D6524C"/>
<path d="M118.318 189.861L122.439 186.88L121.737 186.797L118.295 189.541L118.318 189.861Z" fill="#D6524C"/>
<path d="M115.45 199.114H116.72C116.72 199.114 117.031 193.429 118.334 189.784L118.106 188.949C118.106 188.949 115.667 195.431 115.45 199.114Z" fill="#D6524C"/>
<path d="M117.833 185.1C117.549 184.751 117.126 184.685 116.898 184.923C116.796 185.062 116.744 185.232 116.75 185.404C116.756 185.576 116.82 185.742 116.931 185.874C117.016 186.03 117.159 186.147 117.329 186.201C117.5 186.254 117.684 186.24 117.844 186.161C117.914 186.091 117.97 186.008 118.007 185.916C118.044 185.825 118.063 185.727 118.062 185.628C118.061 185.529 118.04 185.432 118.001 185.341C117.962 185.25 117.905 185.168 117.833 185.1Z" fill="#D6524C"/>
<path d="M122.522 186.416C122.238 186.067 121.848 185.984 121.653 186.195C121.567 186.335 121.529 186.499 121.544 186.662C121.559 186.825 121.627 186.979 121.737 187.102C121.976 187.434 122.361 187.588 122.595 187.428C122.828 187.268 122.823 186.786 122.522 186.416Z" fill="#D6524C"/>
<path d="M126.22 187.356C125.936 187.008 125.568 186.903 125.401 187.096C125.234 187.29 125.301 187.649 125.529 187.97C125.758 188.291 126.131 188.473 126.342 188.329C126.554 188.186 126.52 187.738 126.22 187.356Z" fill="#D6524C"/>
<path d="M113.462 189.214L117.822 185.581L117.12 185.265L113.479 188.877L113.462 189.214Z" fill="#D6524C"/>
<path d="M108.717 199.114H110.21C110.21 199.114 111.435 192.975 113.49 189.131L113.351 188.252C113.351 188.252 109.547 195.143 108.717 199.114Z" fill="#D6524C"/>
<path d="M110.21 199.115C110.634 197.139 111.166 195.187 111.802 193.268C111.769 192.682 111.725 192.118 111.663 191.609C110.55 193.927 109.191 196.974 108.74 199.148L110.21 199.115Z" fill="#EF6F6F"/>
<path d="M133.676 185.769C133.821 185.343 133.386 184.817 132.601 184.552C131.677 184.237 130.569 184.364 130.279 184.923C129.99 185.481 130.758 186.184 131.844 186.349C132.757 186.493 133.52 186.217 133.676 185.769Z" fill="#47393C"/>
<path d="M135.865 185.791C135.709 185.343 136.188 184.79 137.04 184.497C138.047 184.154 139.239 184.275 139.551 184.856C139.863 185.437 138.994 186.184 137.83 186.372C136.861 186.538 136.02 186.255 135.865 185.791Z" fill="#47393C"/>
<path d="M135.447 193.374C131.632 193.445 129.16 191.924 129.049 190.641C128.937 189.358 130.931 188.036 130.931 188.036C130.931 188.036 133.32 188.479 133.609 189.319C133.609 189.319 131.772 189.834 131.883 190.946C132.028 192.328 135.447 193.374 135.447 193.374Z" fill="#D6524C"/>
<path d="M130.179 190.531C130.067 189.607 130.97 188.667 131.532 188.175C131.187 188.086 130.936 188.036 130.936 188.036C130.936 188.036 128.943 189.358 129.054 190.641C129.165 191.924 131.638 193.445 135.452 193.374L135.302 193.329C132.262 193.053 130.313 191.698 130.179 190.531Z" fill="#B73939"/>
<path d="M137.234 193.374C140.258 192.113 141.645 190.094 141.405 188.949C141.166 187.804 139.117 186.919 139.117 186.919C139.117 186.919 136.928 187.787 137.012 188.755C137.012 188.755 139.033 188.982 139.312 190.061C139.646 191.316 137.234 193.374 137.234 193.374Z" fill="#D6524C"/>
<path d="M137.234 193.373L137.463 193.274C138.12 192.721 140.152 190.984 139.919 189.734C139.685 188.484 137.357 188.042 137.357 188.042V187.987C137.249 188.08 137.163 188.196 137.103 188.326C137.044 188.455 137.012 188.596 137.012 188.739C137.012 188.739 139.033 188.965 139.312 190.044C139.646 191.316 137.234 193.373 137.234 193.373Z" fill="#B73939"/>
<path d="M136.861 185.641C136.772 185.376 137.062 185.039 137.574 184.862C138.181 184.657 138.899 184.729 139.083 185.083C139.267 185.437 138.76 185.879 138.047 185.995C137.418 186.078 136.95 185.924 136.861 185.641Z" fill="#ED4343"/>
<path d="M133.192 185.741C133.269 185.503 133.03 185.216 132.601 185.066C132.089 184.895 131.488 184.967 131.32 185.277C131.153 185.586 131.588 185.968 132.184 186.062C132.685 186.139 133.108 185.984 133.192 185.741Z" fill="#ED4343"/>
<path d="M125.863 187.185C125.696 187.074 125.524 187.08 125.474 187.185C125.423 187.29 125.507 187.434 125.646 187.533C125.785 187.633 125.975 187.666 126.047 187.583C126.119 187.5 126.042 187.273 125.863 187.185Z" fill="#FFA143"/>
<path d="M122.194 186.255C122.026 186.15 121.854 186.15 121.804 186.255C121.754 186.36 121.804 186.499 121.976 186.604C122.149 186.709 122.299 186.737 122.372 186.648C122.444 186.56 122.383 186.372 122.194 186.255Z" fill="#FFA143"/>
<path d="M117.527 185.005C117.36 184.895 117.187 184.9 117.137 185.005C117.087 185.111 117.137 185.249 117.31 185.354C117.482 185.459 117.633 185.487 117.705 185.398C117.778 185.31 117.705 185.122 117.527 185.005Z" fill="#FFA143"/>
<path d="M117.872 182.207C118.596 182.793 119.977 183.186 121.564 183.186C123.151 183.186 124.627 182.766 125.329 182.146C124.582 181.471 123.307 181.073 121.503 181.256C120.242 181.336 119.009 181.659 117.872 182.207Z" fill="#FFD473"/>
<path d="M133.604 189.308C133.447 189.544 133.38 189.827 133.416 190.108C133.451 190.388 133.587 190.646 133.799 190.835C133.799 190.835 132.223 190.636 132.356 189.602C132.49 188.567 133.604 189.308 133.604 189.308Z" fill="#D6524C"/>
<path d="M135.141 188.916C134.982 189.15 134.913 189.434 134.948 189.714C134.983 189.995 135.118 190.253 135.33 190.442C135.33 190.442 133.754 190.243 133.893 189.209C134.032 188.175 135.141 188.916 135.141 188.916Z" fill="#D6524C"/>
<path d="M137.023 188.739C137.183 188.972 137.252 189.256 137.216 189.536C137.18 189.816 137.042 190.074 136.828 190.26C136.828 190.26 138.421 190.066 138.281 189.032C138.142 187.998 137.023 188.739 137.023 188.739Z" fill="#B73939"/>
<path d="M135.564 188.783C135.78 188.967 135.922 189.222 135.963 189.502C136.004 189.782 135.941 190.067 135.787 190.304C135.787 190.304 137.268 189.695 136.856 188.733C136.444 187.771 135.564 188.783 135.564 188.783Z" fill="#D6524C"/>
<path d="M133.576 186.836C133.231 187.063 132.534 186.786 133.019 186.643C133.503 186.499 134.01 186.549 133.576 186.836Z" fill="#47393C"/>
<path d="M135.848 186.67C136.171 186.897 136.817 186.62 136.36 186.477C135.903 186.333 135.441 186.383 135.848 186.67Z" fill="#47393C"/>
<path d="M112.254 176.46C111.59 176.481 110.932 176.584 110.293 176.765C111.586 177.913 113.149 178.721 114.837 179.115C116.356 179.454 117.933 179.435 119.443 179.06C117.856 177.445 115.478 176.372 112.254 176.46Z" fill="#FFF1AB"/>
<path d="M105.026 186.034C104.372 185.927 103.708 185.903 103.049 185.962C104.095 187.336 105.474 188.425 107.058 189.126C108.483 189.749 110.036 190.028 111.591 189.939C110.338 188.058 108.205 186.554 105.026 186.034Z" fill="#FFBA55"/>
<path d="M108.628 177.229C108.424 177.306 108.235 177.418 108.071 177.561C108.483 177.894 108.99 178.087 109.519 178.114C109.895 178.098 110.255 177.96 110.544 177.722C110.333 177.43 110.026 177.222 109.676 177.132C109.326 177.042 108.955 177.076 108.628 177.229Z" fill="#FFF1AB"/>
<path d="M122.661 181.554C122.362 181.588 122.067 181.643 121.776 181.72C122.251 181.95 122.773 182.07 123.302 182.069C123.706 182.051 124.107 181.982 124.493 181.864C123.93 181.574 123.29 181.466 122.661 181.554Z" fill="#FFF1AB"/>
<path d="M16.874 197.693H252.427C252.427 197.693 210.206 206.542 127.244 206.542C44.2828 206.542 16.874 197.693 16.874 197.693Z" fill="#CA5FD6"/>
</svg>
